<svg version="1.0" xmlns="http://www.w3.org/2000/svg" xmlns:xlink="http://www.w3.org/1999/xlink" x="0" y="0"
     preserveAspectRatio="xMidYMid meet" color-interpolation-filters="sRGB" viewBox="74.03 72.72 191.93 104.58">
    <defs>
        <linearGradient id="92" x1="0%" y1="0%" x2="100%" y2="0%">
            <stop offset="0%" stop-color="#fa71cd"></stop>
            <stop offset="100%" stop-color="#9b59b6"></stop>
        </linearGradient>
        <linearGradient id="93" x1="0%" y1="0%" x2="100%" y2="0%">
            <stop offset="0%" stop-color="#f9d423"></stop>
            <stop offset="100%" stop-color="#f83600"></stop>
        </linearGradient>
        <linearGradient id="94" x1="0%" y1="0%" x2="100%" y2="0%">
            <stop offset="0%" stop-color="#0064d2"></stop>
            <stop offset="100%" stop-color="#1cb0f6"></stop>
        </linearGradient>
        <linearGradient id="95" x1="0%" y1="0%" x2="100%" y2="0%">
            <stop offset="0%" stop-color="#f00978"></stop>
            <stop offset="100%" stop-color="#3f51b1"></stop>
        </linearGradient>
        <linearGradient id="96" x1="0%" y1="0%" x2="100%" y2="0%">
            <stop offset="0%" stop-color="#7873f5"></stop>
            <stop offset="100%" stop-color="#ec77ab"></stop>
        </linearGradient>
        <linearGradient id="97" x1="0%" y1="0%" x2="100%" y2="0%">
            <stop offset="0%" stop-color="#f9d423"></stop>
            <stop offset="100%" stop-color="#e14fad"></stop>
        </linearGradient>
        <linearGradient id="98" x1="0%" y1="0%" x2="100%" y2="0%">
            <stop offset="0%" stop-color="#009efd"></stop>
            <stop offset="100%" stop-color="#2af598"></stop>
        </linearGradient>
        <linearGradient id="99" x1="0%" y1="0%" x2="100%" y2="0%">
            <stop offset="0%" stop-color="#ffcc00"></stop>
            <stop offset="100%" stop-color="#00b140"></stop>
        </linearGradient>
        <linearGradient id="100" x1="0%" y1="0%" x2="100%" y2="0%">
            <stop offset="0%" stop-color="#d51007"></stop>
            <stop offset="100%" stop-color="#ff8177"></stop>
        </linearGradient>
        <linearGradient id="102" x1="0%" y1="0%" x2="100%" y2="0%">
            <stop offset="0%" stop-color="#a2b6df"></stop>
            <stop offset="100%" stop-color="#0c3483"></stop>
        </linearGradient>
        <linearGradient id="103" x1="0%" y1="0%" x2="100%" y2="0%">
            <stop offset="0%" stop-color="#7ac5d8"></stop>
            <stop offset="100%" stop-color="#eea2a2"></stop>
        </linearGradient>
        <linearGradient id="104" x1="0%" y1="0%" x2="100%" y2="0%">
            <stop offset="0%" stop-color="#00ecbc"></stop>
            <stop offset="100%" stop-color="#007adf"></stop>
        </linearGradient>
        <linearGradient id="105" x1="0%" y1="0%" x2="100%" y2="0%">
            <stop offset="0%" stop-color="#b88746"></stop>
            <stop offset="100%" stop-color="#fdf5a6"></stop>
        </linearGradient>
    </defs>
    <g class="iconmbgsvg" transform="translate(74.04969787597656,72.7249984741211)">
        <g fill="#547d7f" hollow-target="text">
            <g mask="url(#f1041c07-e1ac-4a6e-81c6-8f3aeacfe9b9)">
                <g>
                    <rect fill="#547d7f" fill-opacity="0" stroke-width="2" x="0" y="0" width="104.55" height="104.55"
                          class="image-rect"></rect>
                    <svg filter="url(#colors7727346700)" x="0" y="0" width="104.55" height="104.55"
                         filtersec="colorsf3740161929" class="image-svg-svg primary" style="overflow: visible;">
                        <svg xmlns="http://www.w3.org/2000/svg" viewBox="0 0 64 64">
                            <path d="M64 32v32H32C14.327 64 0 49.673 0 32 0 14.327 14.327 0 32 0c17.673 0 32 14.327 32 32z"
                                  fill-rule="evenodd" fill="#000000"></path>
                        </svg>
                    </svg>
                    <defs>
                        <filter id="colors7727346700">
                            <feColorMatrix type="matrix"
                                           values="0 0 0 0 0.59765625  0 0 0 0 0.71484375  0 0 0 0 0.72265625  0 0 0 1 0"
                                           class="icon-feColorMatrix "></feColorMatrix>
                        </filter>
                        <filter id="colorsf3740161929">
                            <feColorMatrix type="matrix"
                                           values="0 0 0 0 0.99609375  0 0 0 0 0.99609375  0 0 0 0 0.99609375  0 0 0 1 0"
                                           class="icon-fecolormatrix"></feColorMatrix>
                        </filter>
                        <filter id="colorsb8628171152">
                            <feColorMatrix type="matrix" values="0 0 0 0 0  0 0 0 0 0  0 0 0 0 0  0 0 0 1 0"
                                           class="icon-fecolormatrix"></feColorMatrix>
                        </filter>
                    </defs>
                </g>
            </g>
            <g transform="translate(30.649398803710938,40.833322525024414)">
                <g fill-rule="" class="tp-name" transform="translate(0,0)">
                    <g transform="scale(0.8799999999999999)">
                        <g>
                            <path d="M26.48-37.98L33.65-9.39 39.49-37.98 46.04-37.98 37.28 0 30.96 0 23.74-27.73 16.36 0 10.02 0 1.25-37.98 7.8-37.98 13.69-9.44 20.95-37.98 26.48-37.98ZM77.07-22.17L77.07-16.96 61.47-16.96 61.47-5.27 79.7-5.27 79.7 0 54.87 0 54.87-37.98 79.52-37.98 79.52-32.66 61.47-32.66 61.47-22.17 77.07-22.17ZM95.67-37.98L95.67-5.27 112.92-5.27 112.92 0 89.07 0 89.07-37.98 95.67-37.98ZM144.31 0L132.88-16.41 128.58-11.84 128.58 0 121.98 0 121.98-37.98 128.58-37.98 128.58-20.16 132.23-24.68 143.34-37.98 151.32-37.98 137.21-21.16 152.13 0 144.31 0ZM181.85-22.17L181.85-16.96 166.25-16.96 166.25-5.27 184.49-5.27 184.49 0 159.65 0 159.65-37.98 184.3-37.98 184.3-32.66 166.25-32.66 166.25-22.17 181.85-22.17Z"
                                  transform="translate(-1.25, 37.97999954223633)"></path>
                        </g>
                    </g>
                </g>
                <g fill-rule="" class="tp-slogan" fill="#547d7f"
                   transform="translate(78.11360168457031,39.42239761352539)">
                    <g transform="scale(1, 1)">
                        <g transform="scale(1.1600000000000001)">
                            <path d="M1.08 0L1.08-7.87L3.05-7.87Q4.87-7.87 5.82-6.86Q6.77-5.86 6.77-3.97L6.77-3.97Q6.77-3.04 6.53-2.30Q6.29-1.56 5.82-1.05Q5.35-0.54 4.67-0.27Q3.98 0 3.10 0L3.10 0L1.08 0ZM2.08-0.82L2.98-0.82Q4.36-0.82 5.05-1.64Q5.74-2.47 5.74-3.97L5.74-3.97Q5.74-5.47 5.05-6.26Q4.36-7.06 2.98-7.06L2.98-7.06L2.08-7.06L2.08-0.82ZM10.46 0L10.46-7.87L15.00-7.87L15.00-7.03L11.46-7.03L11.46-4.56L14.44-4.56L14.44-3.71L11.46-3.71L11.46-0.85L15.12-0.85L15.12 0L10.46 0ZM18.78 0L18.78-7.87L23.32-7.87L23.32-7.03L19.78-7.03L19.78-4.56L22.77-4.56L22.77-3.71L19.78-3.71L19.78-0.85L23.44-0.85L23.44 0L18.78 0ZM27.11 0L27.11-7.87L28.10-7.87L28.10-0.85L31.55-0.85L31.55 0L27.11 0ZM35.96-3.20L38.32-3.20L37.95-4.40Q37.74-5.06 37.54-5.72Q37.35-6.37 37.16-7.06L37.16-7.06L37.11-7.06Q36.93-6.37 36.74-5.72Q36.55-5.06 36.33-4.40L36.33-4.40L35.96-3.20ZM39.32 0L38.58-2.40L35.71-2.40L34.95 0L33.93 0L36.60-7.87L37.72-7.87L40.39 0L39.32 0ZM43.29-3.25L43.29-7.87L44.28-7.87L44.28-3.23Q44.28-2.52 44.43-2.04Q44.57-1.56 44.82-1.27Q45.06-0.98 45.40-0.86Q45.74-0.73 46.12-0.73L46.12-0.73Q46.52-0.73 46.85-0.86Q47.19-0.98 47.44-1.27Q47.69-1.56 47.84-2.04Q47.98-2.52 47.98-3.23L47.98-3.23L47.98-7.87L48.94-7.87L48.94-3.25Q48.94-2.30 48.72-1.66Q48.51-1.01 48.13-0.61Q47.75-0.20 47.24-0.03Q46.72 0.14 46.12 0.14L46.12 0.14Q45.52 0.14 45.00-0.03Q44.48-0.20 44.10-0.61Q43.72-1.01 43.50-1.66Q43.29-2.30 43.29-3.25L43.29-3.25ZM54.70 0L54.70-7.03L52.32-7.03L52.32-7.87L58.08-7.87L58.08-7.03L55.70-7.03L55.70 0L54.70 0ZM64.11 0.14L64.11 0.14Q63.37 0.14 62.75-0.14Q62.13-0.43 61.69-0.97Q61.24-1.50 61.00-2.26Q60.75-3.02 60.75-3.97L60.75-3.97Q60.75-4.92 61.00-5.67Q61.24-6.42 61.69-6.94Q62.13-7.46 62.75-7.74Q63.37-8.02 64.11-8.02L64.11-8.02Q64.86-8.02 65.47-7.73Q66.09-7.45 66.54-6.93Q66.99-6.41 67.24-5.66Q67.48-4.91 67.48-3.97L67.48-3.97Q67.48-3.02 67.24-2.26Q66.99-1.50 66.54-0.97Q66.09-0.43 65.47-0.14Q64.86 0.14 64.11 0.14ZM64.11-0.73L64.11-0.73Q64.64-0.73 65.07-0.96Q65.49-1.19 65.80-1.61Q66.10-2.04 66.27-2.63Q66.44-3.23 66.44-3.97L66.44-3.97Q66.44-4.70 66.27-5.29Q66.10-5.88 65.80-6.29Q65.49-6.70 65.07-6.92Q64.64-7.14 64.11-7.14L64.11-7.14Q63.58-7.14 63.16-6.92Q62.73-6.70 62.43-6.29Q62.12-5.88 61.95-5.29Q61.78-4.70 61.78-3.97L61.78-3.97Q61.78-3.23 61.95-2.63Q62.12-2.04 62.43-1.61Q62.73-1.19 63.16-0.96Q63.58-0.73 64.11-0.73Z"
                                  transform="translate(-1.08, 8.016)"></path>
                        </g>
                    </g>
                </g>
            </g>
        </g>
    </g>
    <mask id="f1041c07-e1ac-4a6e-81c6-8f3aeacfe9b9">
        <g fill="white">
            <g>
                <rect fill-opacity="1" stroke-width="2" x="0" y="0" width="104.55" height="104.55"
                      class="image-rect"></rect>
                <svg x="0" y="0" width="104.55" height="104.55" class="image-svg-svg primary" style="overflow: visible;"
                     filter="url(#colorsf3740161929)">
                    <svg xmlns="http://www.w3.org/2000/svg" viewBox="0 0 64 64">
                        <path d="M64 32v32H32C14.327 64 0 49.673 0 32 0 14.327 14.327 0 32 0c17.673 0 32 14.327 32 32z"
                              fill-rule="evenodd"></path>
                    </svg>
                </svg>
                <defs></defs>
            </g>
        </g>
        <g transform="translate(30.649398803710938,40.833322525024414)" fill="black" stroke="black" stroke-width="6"
           stroke-linejoin="round">
            <g fill-rule="" class="tp-name" transform="translate(0,0)">
                <g transform="scale(0.8799999999999999)">
                    <g>
                        <path d="M26.48-37.98L33.65-9.39 39.49-37.98 46.04-37.98 37.28 0 30.96 0 23.74-27.73 16.36 0 10.02 0 1.25-37.98 7.8-37.98 13.69-9.44 20.95-37.98 26.48-37.98ZM77.07-22.17L77.07-16.96 61.47-16.96 61.47-5.27 79.7-5.27 79.7 0 54.87 0 54.87-37.98 79.52-37.98 79.52-32.66 61.47-32.66 61.47-22.17 77.07-22.17ZM95.67-37.98L95.67-5.27 112.92-5.27 112.92 0 89.07 0 89.07-37.98 95.67-37.98ZM144.31 0L132.88-16.41 128.58-11.84 128.58 0 121.98 0 121.98-37.98 128.58-37.98 128.58-20.16 132.23-24.68 143.34-37.98 151.32-37.98 137.21-21.16 152.13 0 144.31 0ZM181.85-22.17L181.85-16.96 166.25-16.96 166.25-5.27 184.49-5.27 184.49 0 159.65 0 159.65-37.98 184.3-37.98 184.3-32.66 166.25-32.66 166.25-22.17 181.85-22.17Z"
                              transform="translate(-1.25, 37.97999954223633)"></path>
                    </g>
                </g>
            </g>
            <g fill-rule="" class="tp-slogan" transform="translate(78.11360168457031,39.42239761352539)" fill="white">
                <g transform="scale(1, 1)">
                    <g transform="scale(1.1600000000000001)">
                        <path d="M1.08 0L1.08-7.87L3.05-7.87Q4.87-7.87 5.82-6.86Q6.77-5.86 6.77-3.97L6.77-3.97Q6.77-3.04 6.53-2.30Q6.29-1.56 5.82-1.05Q5.35-0.54 4.67-0.27Q3.98 0 3.10 0L3.10 0L1.08 0ZM2.08-0.82L2.98-0.82Q4.36-0.82 5.05-1.64Q5.74-2.47 5.74-3.97L5.74-3.97Q5.74-5.47 5.05-6.26Q4.36-7.06 2.98-7.06L2.98-7.06L2.08-7.06L2.08-0.82ZM10.46 0L10.46-7.87L15.00-7.87L15.00-7.03L11.46-7.03L11.46-4.56L14.44-4.56L14.44-3.71L11.46-3.71L11.46-0.85L15.12-0.85L15.12 0L10.46 0ZM18.78 0L18.78-7.87L23.32-7.87L23.32-7.03L19.78-7.03L19.78-4.56L22.77-4.56L22.77-3.71L19.78-3.71L19.78-0.85L23.44-0.85L23.44 0L18.78 0ZM27.11 0L27.11-7.87L28.10-7.87L28.10-0.85L31.55-0.85L31.55 0L27.11 0ZM35.96-3.20L38.32-3.20L37.95-4.40Q37.74-5.06 37.54-5.72Q37.35-6.37 37.16-7.06L37.16-7.06L37.11-7.06Q36.93-6.37 36.74-5.72Q36.55-5.06 36.33-4.40L36.33-4.40L35.96-3.20ZM39.32 0L38.58-2.40L35.71-2.40L34.95 0L33.93 0L36.60-7.87L37.72-7.87L40.39 0L39.32 0ZM43.29-3.25L43.29-7.87L44.28-7.87L44.28-3.23Q44.28-2.52 44.43-2.04Q44.57-1.56 44.82-1.27Q45.06-0.98 45.40-0.86Q45.74-0.73 46.12-0.73L46.12-0.73Q46.52-0.73 46.85-0.86Q47.19-0.98 47.44-1.27Q47.69-1.56 47.84-2.04Q47.98-2.52 47.98-3.23L47.98-3.23L47.98-7.87L48.94-7.87L48.94-3.25Q48.94-2.30 48.72-1.66Q48.51-1.01 48.13-0.61Q47.75-0.20 47.24-0.03Q46.72 0.14 46.12 0.14L46.12 0.14Q45.52 0.14 45.00-0.03Q44.48-0.20 44.10-0.61Q43.72-1.01 43.50-1.66Q43.29-2.30 43.29-3.25L43.29-3.25ZM54.70 0L54.70-7.03L52.32-7.03L52.32-7.87L58.08-7.87L58.08-7.03L55.70-7.03L55.70 0L54.70 0ZM64.11 0.14L64.11 0.14Q63.37 0.14 62.75-0.14Q62.13-0.43 61.69-0.97Q61.24-1.50 61.00-2.26Q60.75-3.02 60.75-3.97L60.75-3.97Q60.75-4.92 61.00-5.67Q61.24-6.42 61.69-6.94Q62.13-7.46 62.75-7.74Q63.37-8.02 64.11-8.02L64.11-8.02Q64.86-8.02 65.47-7.73Q66.09-7.45 66.54-6.93Q66.99-6.41 67.24-5.66Q67.48-4.91 67.48-3.97L67.48-3.97Q67.48-3.02 67.24-2.26Q66.99-1.50 66.54-0.97Q66.09-0.43 65.47-0.14Q64.86 0.14 64.11 0.14ZM64.11-0.73L64.11-0.73Q64.64-0.73 65.07-0.96Q65.49-1.19 65.80-1.61Q66.10-2.04 66.27-2.63Q66.44-3.23 66.44-3.97L66.44-3.97Q66.44-4.70 66.27-5.29Q66.10-5.88 65.80-6.29Q65.49-6.70 65.07-6.92Q64.64-7.14 64.11-7.14L64.11-7.14Q63.58-7.14 63.16-6.92Q62.73-6.70 62.43-6.29Q62.12-5.88 61.95-5.29Q61.78-4.70 61.78-3.97L61.78-3.97Q61.78-3.23 61.95-2.63Q62.12-2.04 62.43-1.61Q62.73-1.19 63.16-0.96Q63.58-0.73 64.11-0.73Z"
                              transform="translate(-1.08, 8.016)"></path>
                    </g>
                </g>
            </g>
        </g>
    </mask>
    <defs v-gra="od"></defs>
</svg>
